G04 #@! TF.GenerationSoftware,KiCad,Pcbnew,(5.1.10)-1*
G04 #@! TF.CreationDate,2021-12-12T11:33:08-08:00*
G04 #@! TF.ProjectId,TsunamiHat,5473756e-616d-4694-9861-742e6b696361,rev?*
G04 #@! TF.SameCoordinates,Original*
G04 #@! TF.FileFunction,Soldermask,Top*
G04 #@! TF.FilePolarity,Negative*
%FSLAX46Y46*%
G04 Gerber Fmt 4.6, Leading zero omitted, Abs format (unit mm)*
G04 Created by KiCad (PCBNEW (5.1.10)-1) date 2021-12-12 11:33:08*
%MOMM*%
%LPD*%
G01*
G04 APERTURE LIST*
%ADD10C,0.100000*%
%ADD11R,1.727200X1.727200*%
%ADD12O,1.727200X1.727200*%
%ADD13R,5.600000X2.100000*%
%ADD14O,1.700000X1.700000*%
%ADD15R,1.700000X1.700000*%
%ADD16C,1.168400*%
%ADD17R,2.000000X1.500000*%
%ADD18R,2.000000X3.800000*%
%ADD19R,1.461200X0.270000*%
%ADD20R,0.270000X1.461200*%
%ADD21R,0.279400X1.701800*%
%ADD22R,1.701800X0.279400*%
%ADD23C,6.200000*%
G04 APERTURE END LIST*
D10*
G36*
X126342000Y-102985000D02*
G01*
X125842000Y-102985000D01*
X125842000Y-102984398D01*
X125817466Y-102984398D01*
X125768635Y-102979588D01*
X125720510Y-102970016D01*
X125673555Y-102955772D01*
X125628222Y-102936995D01*
X125584949Y-102913864D01*
X125544150Y-102886604D01*
X125506221Y-102855476D01*
X125471524Y-102820779D01*
X125440396Y-102782850D01*
X125413136Y-102742051D01*
X125390005Y-102698778D01*
X125371228Y-102653445D01*
X125356984Y-102606490D01*
X125347412Y-102558365D01*
X125342602Y-102509534D01*
X125342602Y-102485000D01*
X125342000Y-102485000D01*
X125342000Y-101985000D01*
X125342602Y-101985000D01*
X125342602Y-101960466D01*
X125347412Y-101911635D01*
X125356984Y-101863510D01*
X125371228Y-101816555D01*
X125390005Y-101771222D01*
X125413136Y-101727949D01*
X125440396Y-101687150D01*
X125471524Y-101649221D01*
X125506221Y-101614524D01*
X125544150Y-101583396D01*
X125584949Y-101556136D01*
X125628222Y-101533005D01*
X125673555Y-101514228D01*
X125720510Y-101499984D01*
X125768635Y-101490412D01*
X125817466Y-101485602D01*
X125842000Y-101485602D01*
X125842000Y-101485000D01*
X126342000Y-101485000D01*
X126342000Y-102985000D01*
G37*
G36*
X127142000Y-101485602D02*
G01*
X127166534Y-101485602D01*
X127215365Y-101490412D01*
X127263490Y-101499984D01*
X127310445Y-101514228D01*
X127355778Y-101533005D01*
X127399051Y-101556136D01*
X127439850Y-101583396D01*
X127477779Y-101614524D01*
X127512476Y-101649221D01*
X127543604Y-101687150D01*
X127570864Y-101727949D01*
X127593995Y-101771222D01*
X127612772Y-101816555D01*
X127627016Y-101863510D01*
X127636588Y-101911635D01*
X127641398Y-101960466D01*
X127641398Y-101985000D01*
X127642000Y-101985000D01*
X127642000Y-102485000D01*
X127641398Y-102485000D01*
X127641398Y-102509534D01*
X127636588Y-102558365D01*
X127627016Y-102606490D01*
X127612772Y-102653445D01*
X127593995Y-102698778D01*
X127570864Y-102742051D01*
X127543604Y-102782850D01*
X127512476Y-102820779D01*
X127477779Y-102855476D01*
X127439850Y-102886604D01*
X127399051Y-102913864D01*
X127355778Y-102936995D01*
X127310445Y-102955772D01*
X127263490Y-102970016D01*
X127215365Y-102979588D01*
X127166534Y-102984398D01*
X127142000Y-102984398D01*
X127142000Y-102985000D01*
X126642000Y-102985000D01*
X126642000Y-101485000D01*
X127142000Y-101485000D01*
X127142000Y-101485602D01*
G37*
G36*
X128882000Y-108065000D02*
G01*
X128382000Y-108065000D01*
X128382000Y-108064398D01*
X128357466Y-108064398D01*
X128308635Y-108059588D01*
X128260510Y-108050016D01*
X128213555Y-108035772D01*
X128168222Y-108016995D01*
X128124949Y-107993864D01*
X128084150Y-107966604D01*
X128046221Y-107935476D01*
X128011524Y-107900779D01*
X127980396Y-107862850D01*
X127953136Y-107822051D01*
X127930005Y-107778778D01*
X127911228Y-107733445D01*
X127896984Y-107686490D01*
X127887412Y-107638365D01*
X127882602Y-107589534D01*
X127882602Y-107565000D01*
X127882000Y-107565000D01*
X127882000Y-107065000D01*
X127882602Y-107065000D01*
X127882602Y-107040466D01*
X127887412Y-106991635D01*
X127896984Y-106943510D01*
X127911228Y-106896555D01*
X127930005Y-106851222D01*
X127953136Y-106807949D01*
X127980396Y-106767150D01*
X128011524Y-106729221D01*
X128046221Y-106694524D01*
X128084150Y-106663396D01*
X128124949Y-106636136D01*
X128168222Y-106613005D01*
X128213555Y-106594228D01*
X128260510Y-106579984D01*
X128308635Y-106570412D01*
X128357466Y-106565602D01*
X128382000Y-106565602D01*
X128382000Y-106565000D01*
X128882000Y-106565000D01*
X128882000Y-108065000D01*
G37*
G36*
X129682000Y-106565602D02*
G01*
X129706534Y-106565602D01*
X129755365Y-106570412D01*
X129803490Y-106579984D01*
X129850445Y-106594228D01*
X129895778Y-106613005D01*
X129939051Y-106636136D01*
X129979850Y-106663396D01*
X130017779Y-106694524D01*
X130052476Y-106729221D01*
X130083604Y-106767150D01*
X130110864Y-106807949D01*
X130133995Y-106851222D01*
X130152772Y-106896555D01*
X130167016Y-106943510D01*
X130176588Y-106991635D01*
X130181398Y-107040466D01*
X130181398Y-107065000D01*
X130182000Y-107065000D01*
X130182000Y-107565000D01*
X130181398Y-107565000D01*
X130181398Y-107589534D01*
X130176588Y-107638365D01*
X130167016Y-107686490D01*
X130152772Y-107733445D01*
X130133995Y-107778778D01*
X130110864Y-107822051D01*
X130083604Y-107862850D01*
X130052476Y-107900779D01*
X130017779Y-107935476D01*
X129979850Y-107966604D01*
X129939051Y-107993864D01*
X129895778Y-108016995D01*
X129850445Y-108035772D01*
X129803490Y-108050016D01*
X129755365Y-108059588D01*
X129706534Y-108064398D01*
X129682000Y-108064398D01*
X129682000Y-108065000D01*
X129182000Y-108065000D01*
X129182000Y-106565000D01*
X129682000Y-106565000D01*
X129682000Y-106565602D01*
G37*
G36*
G01*
X123313000Y-102799000D02*
X122813000Y-102799000D01*
G75*
G02*
X122588000Y-102574000I0J225000D01*
G01*
X122588000Y-102124000D01*
G75*
G02*
X122813000Y-101899000I225000J0D01*
G01*
X123313000Y-101899000D01*
G75*
G02*
X123538000Y-102124000I0J-225000D01*
G01*
X123538000Y-102574000D01*
G75*
G02*
X123313000Y-102799000I-225000J0D01*
G01*
G37*
G36*
G01*
X123313000Y-104349000D02*
X122813000Y-104349000D01*
G75*
G02*
X122588000Y-104124000I0J225000D01*
G01*
X122588000Y-103674000D01*
G75*
G02*
X122813000Y-103449000I225000J0D01*
G01*
X123313000Y-103449000D01*
G75*
G02*
X123538000Y-103674000I0J-225000D01*
G01*
X123538000Y-104124000D01*
G75*
G02*
X123313000Y-104349000I-225000J0D01*
G01*
G37*
D11*
X81903000Y-67754000D03*
D12*
X81903000Y-65214000D03*
X84443000Y-67754000D03*
X84443000Y-65214000D03*
X86983000Y-67754000D03*
X86983000Y-65214000D03*
X89523000Y-67754000D03*
X89523000Y-65214000D03*
X92063000Y-67754000D03*
X92063000Y-65214000D03*
X94603000Y-67754000D03*
X94603000Y-65214000D03*
X97143000Y-67754000D03*
X97143000Y-65214000D03*
X99683000Y-67754000D03*
X99683000Y-65214000D03*
X102223000Y-67754000D03*
X102223000Y-65214000D03*
X104763000Y-67754000D03*
X104763000Y-65214000D03*
X107303000Y-67754000D03*
X107303000Y-65214000D03*
X109843000Y-67754000D03*
X109843000Y-65214000D03*
X112383000Y-67754000D03*
X112383000Y-65214000D03*
X114923000Y-67754000D03*
X114923000Y-65214000D03*
X117463000Y-67754000D03*
X117463000Y-65214000D03*
X120003000Y-67754000D03*
X120003000Y-65214000D03*
X122543000Y-67754000D03*
X122543000Y-65214000D03*
X125083000Y-67754000D03*
X125083000Y-65214000D03*
X127623000Y-67754000D03*
X127623000Y-65214000D03*
X130163000Y-67754000D03*
X130163000Y-65214000D03*
D13*
X86182000Y-98171000D03*
X95682000Y-98171000D03*
G36*
G01*
X89024750Y-92552000D02*
X89537250Y-92552000D01*
G75*
G02*
X89756000Y-92770750I0J-218750D01*
G01*
X89756000Y-93208250D01*
G75*
G02*
X89537250Y-93427000I-218750J0D01*
G01*
X89024750Y-93427000D01*
G75*
G02*
X88806000Y-93208250I0J218750D01*
G01*
X88806000Y-92770750D01*
G75*
G02*
X89024750Y-92552000I218750J0D01*
G01*
G37*
G36*
G01*
X89024750Y-90977000D02*
X89537250Y-90977000D01*
G75*
G02*
X89756000Y-91195750I0J-218750D01*
G01*
X89756000Y-91633250D01*
G75*
G02*
X89537250Y-91852000I-218750J0D01*
G01*
X89024750Y-91852000D01*
G75*
G02*
X88806000Y-91633250I0J218750D01*
G01*
X88806000Y-91195750D01*
G75*
G02*
X89024750Y-90977000I218750J0D01*
G01*
G37*
G36*
G01*
X87380000Y-92527000D02*
X87880000Y-92527000D01*
G75*
G02*
X88105000Y-92752000I0J-225000D01*
G01*
X88105000Y-93202000D01*
G75*
G02*
X87880000Y-93427000I-225000J0D01*
G01*
X87380000Y-93427000D01*
G75*
G02*
X87155000Y-93202000I0J225000D01*
G01*
X87155000Y-92752000D01*
G75*
G02*
X87380000Y-92527000I225000J0D01*
G01*
G37*
G36*
G01*
X87380000Y-90977000D02*
X87880000Y-90977000D01*
G75*
G02*
X88105000Y-91202000I0J-225000D01*
G01*
X88105000Y-91652000D01*
G75*
G02*
X87880000Y-91877000I-225000J0D01*
G01*
X87380000Y-91877000D01*
G75*
G02*
X87155000Y-91652000I0J225000D01*
G01*
X87155000Y-91202000D01*
G75*
G02*
X87380000Y-90977000I225000J0D01*
G01*
G37*
D14*
X112649000Y-86106000D03*
X112649000Y-83566000D03*
D15*
X112649000Y-81026000D03*
G36*
G01*
X101748000Y-106128000D02*
X101198000Y-106128000D01*
G75*
G02*
X100998000Y-105928000I0J200000D01*
G01*
X100998000Y-105528000D01*
G75*
G02*
X101198000Y-105328000I200000J0D01*
G01*
X101748000Y-105328000D01*
G75*
G02*
X101948000Y-105528000I0J-200000D01*
G01*
X101948000Y-105928000D01*
G75*
G02*
X101748000Y-106128000I-200000J0D01*
G01*
G37*
G36*
G01*
X101748000Y-107778000D02*
X101198000Y-107778000D01*
G75*
G02*
X100998000Y-107578000I0J200000D01*
G01*
X100998000Y-107178000D01*
G75*
G02*
X101198000Y-106978000I200000J0D01*
G01*
X101748000Y-106978000D01*
G75*
G02*
X101948000Y-107178000I0J-200000D01*
G01*
X101948000Y-107578000D01*
G75*
G02*
X101748000Y-107778000I-200000J0D01*
G01*
G37*
G36*
G01*
X106828000Y-106128000D02*
X106278000Y-106128000D01*
G75*
G02*
X106078000Y-105928000I0J200000D01*
G01*
X106078000Y-105528000D01*
G75*
G02*
X106278000Y-105328000I200000J0D01*
G01*
X106828000Y-105328000D01*
G75*
G02*
X107028000Y-105528000I0J-200000D01*
G01*
X107028000Y-105928000D01*
G75*
G02*
X106828000Y-106128000I-200000J0D01*
G01*
G37*
G36*
G01*
X106828000Y-107778000D02*
X106278000Y-107778000D01*
G75*
G02*
X106078000Y-107578000I0J200000D01*
G01*
X106078000Y-107178000D01*
G75*
G02*
X106278000Y-106978000I200000J0D01*
G01*
X106828000Y-106978000D01*
G75*
G02*
X107028000Y-107178000I0J-200000D01*
G01*
X107028000Y-107578000D01*
G75*
G02*
X106828000Y-107778000I-200000J0D01*
G01*
G37*
G36*
G01*
X119528000Y-106128000D02*
X118978000Y-106128000D01*
G75*
G02*
X118778000Y-105928000I0J200000D01*
G01*
X118778000Y-105528000D01*
G75*
G02*
X118978000Y-105328000I200000J0D01*
G01*
X119528000Y-105328000D01*
G75*
G02*
X119728000Y-105528000I0J-200000D01*
G01*
X119728000Y-105928000D01*
G75*
G02*
X119528000Y-106128000I-200000J0D01*
G01*
G37*
G36*
G01*
X119528000Y-107778000D02*
X118978000Y-107778000D01*
G75*
G02*
X118778000Y-107578000I0J200000D01*
G01*
X118778000Y-107178000D01*
G75*
G02*
X118978000Y-106978000I200000J0D01*
G01*
X119528000Y-106978000D01*
G75*
G02*
X119728000Y-107178000I0J-200000D01*
G01*
X119728000Y-107578000D01*
G75*
G02*
X119528000Y-107778000I-200000J0D01*
G01*
G37*
G36*
G01*
X114448000Y-106128000D02*
X113898000Y-106128000D01*
G75*
G02*
X113698000Y-105928000I0J200000D01*
G01*
X113698000Y-105528000D01*
G75*
G02*
X113898000Y-105328000I200000J0D01*
G01*
X114448000Y-105328000D01*
G75*
G02*
X114648000Y-105528000I0J-200000D01*
G01*
X114648000Y-105928000D01*
G75*
G02*
X114448000Y-106128000I-200000J0D01*
G01*
G37*
G36*
G01*
X114448000Y-107778000D02*
X113898000Y-107778000D01*
G75*
G02*
X113698000Y-107578000I0J200000D01*
G01*
X113698000Y-107178000D01*
G75*
G02*
X113898000Y-106978000I200000J0D01*
G01*
X114448000Y-106978000D01*
G75*
G02*
X114648000Y-107178000I0J-200000D01*
G01*
X114648000Y-107578000D01*
G75*
G02*
X114448000Y-107778000I-200000J0D01*
G01*
G37*
G36*
G01*
X104288000Y-106128000D02*
X103738000Y-106128000D01*
G75*
G02*
X103538000Y-105928000I0J200000D01*
G01*
X103538000Y-105528000D01*
G75*
G02*
X103738000Y-105328000I200000J0D01*
G01*
X104288000Y-105328000D01*
G75*
G02*
X104488000Y-105528000I0J-200000D01*
G01*
X104488000Y-105928000D01*
G75*
G02*
X104288000Y-106128000I-200000J0D01*
G01*
G37*
G36*
G01*
X104288000Y-107778000D02*
X103738000Y-107778000D01*
G75*
G02*
X103538000Y-107578000I0J200000D01*
G01*
X103538000Y-107178000D01*
G75*
G02*
X103738000Y-106978000I200000J0D01*
G01*
X104288000Y-106978000D01*
G75*
G02*
X104488000Y-107178000I0J-200000D01*
G01*
X104488000Y-107578000D01*
G75*
G02*
X104288000Y-107778000I-200000J0D01*
G01*
G37*
G36*
G01*
X109368000Y-106128000D02*
X108818000Y-106128000D01*
G75*
G02*
X108618000Y-105928000I0J200000D01*
G01*
X108618000Y-105528000D01*
G75*
G02*
X108818000Y-105328000I200000J0D01*
G01*
X109368000Y-105328000D01*
G75*
G02*
X109568000Y-105528000I0J-200000D01*
G01*
X109568000Y-105928000D01*
G75*
G02*
X109368000Y-106128000I-200000J0D01*
G01*
G37*
G36*
G01*
X109368000Y-107778000D02*
X108818000Y-107778000D01*
G75*
G02*
X108618000Y-107578000I0J200000D01*
G01*
X108618000Y-107178000D01*
G75*
G02*
X108818000Y-106978000I200000J0D01*
G01*
X109368000Y-106978000D01*
G75*
G02*
X109568000Y-107178000I0J-200000D01*
G01*
X109568000Y-107578000D01*
G75*
G02*
X109368000Y-107778000I-200000J0D01*
G01*
G37*
G36*
G01*
X116988000Y-106128000D02*
X116438000Y-106128000D01*
G75*
G02*
X116238000Y-105928000I0J200000D01*
G01*
X116238000Y-105528000D01*
G75*
G02*
X116438000Y-105328000I200000J0D01*
G01*
X116988000Y-105328000D01*
G75*
G02*
X117188000Y-105528000I0J-200000D01*
G01*
X117188000Y-105928000D01*
G75*
G02*
X116988000Y-106128000I-200000J0D01*
G01*
G37*
G36*
G01*
X116988000Y-107778000D02*
X116438000Y-107778000D01*
G75*
G02*
X116238000Y-107578000I0J200000D01*
G01*
X116238000Y-107178000D01*
G75*
G02*
X116438000Y-106978000I200000J0D01*
G01*
X116988000Y-106978000D01*
G75*
G02*
X117188000Y-107178000I0J-200000D01*
G01*
X117188000Y-107578000D01*
G75*
G02*
X116988000Y-107778000I-200000J0D01*
G01*
G37*
G36*
G01*
X111908000Y-106128000D02*
X111358000Y-106128000D01*
G75*
G02*
X111158000Y-105928000I0J200000D01*
G01*
X111158000Y-105528000D01*
G75*
G02*
X111358000Y-105328000I200000J0D01*
G01*
X111908000Y-105328000D01*
G75*
G02*
X112108000Y-105528000I0J-200000D01*
G01*
X112108000Y-105928000D01*
G75*
G02*
X111908000Y-106128000I-200000J0D01*
G01*
G37*
G36*
G01*
X111908000Y-107778000D02*
X111358000Y-107778000D01*
G75*
G02*
X111158000Y-107578000I0J200000D01*
G01*
X111158000Y-107178000D01*
G75*
G02*
X111358000Y-106978000I200000J0D01*
G01*
X111908000Y-106978000D01*
G75*
G02*
X112108000Y-107178000I0J-200000D01*
G01*
X112108000Y-107578000D01*
G75*
G02*
X111908000Y-107778000I-200000J0D01*
G01*
G37*
G36*
G01*
X134091000Y-88182000D02*
X134641000Y-88182000D01*
G75*
G02*
X134841000Y-88382000I0J-200000D01*
G01*
X134841000Y-88782000D01*
G75*
G02*
X134641000Y-88982000I-200000J0D01*
G01*
X134091000Y-88982000D01*
G75*
G02*
X133891000Y-88782000I0J200000D01*
G01*
X133891000Y-88382000D01*
G75*
G02*
X134091000Y-88182000I200000J0D01*
G01*
G37*
G36*
G01*
X134091000Y-86532000D02*
X134641000Y-86532000D01*
G75*
G02*
X134841000Y-86732000I0J-200000D01*
G01*
X134841000Y-87132000D01*
G75*
G02*
X134641000Y-87332000I-200000J0D01*
G01*
X134091000Y-87332000D01*
G75*
G02*
X133891000Y-87132000I0J200000D01*
G01*
X133891000Y-86732000D01*
G75*
G02*
X134091000Y-86532000I200000J0D01*
G01*
G37*
D14*
X101473000Y-116586000D03*
X101473000Y-114046000D03*
X104013000Y-116586000D03*
X104013000Y-114046000D03*
X106553000Y-116586000D03*
X106553000Y-114046000D03*
X109093000Y-116586000D03*
X109093000Y-114046000D03*
X111633000Y-116586000D03*
X111633000Y-114046000D03*
X114173000Y-116586000D03*
X114173000Y-114046000D03*
X116713000Y-116586000D03*
X116713000Y-114046000D03*
X119253000Y-116586000D03*
X119253000Y-114046000D03*
X121793000Y-116586000D03*
X121793000Y-114046000D03*
X124333000Y-116586000D03*
X124333000Y-114046000D03*
X126873000Y-116586000D03*
X126873000Y-114046000D03*
X129413000Y-116586000D03*
D15*
X129413000Y-114046000D03*
G36*
G01*
X118014000Y-75816750D02*
X118014000Y-76329250D01*
G75*
G02*
X117795250Y-76548000I-218750J0D01*
G01*
X117357750Y-76548000D01*
G75*
G02*
X117139000Y-76329250I0J218750D01*
G01*
X117139000Y-75816750D01*
G75*
G02*
X117357750Y-75598000I218750J0D01*
G01*
X117795250Y-75598000D01*
G75*
G02*
X118014000Y-75816750I0J-218750D01*
G01*
G37*
G36*
G01*
X119589000Y-75816750D02*
X119589000Y-76329250D01*
G75*
G02*
X119370250Y-76548000I-218750J0D01*
G01*
X118932750Y-76548000D01*
G75*
G02*
X118714000Y-76329250I0J218750D01*
G01*
X118714000Y-75816750D01*
G75*
G02*
X118932750Y-75598000I218750J0D01*
G01*
X119370250Y-75598000D01*
G75*
G02*
X119589000Y-75816750I0J-218750D01*
G01*
G37*
G36*
G01*
X125853000Y-105339000D02*
X125353000Y-105339000D01*
G75*
G02*
X125128000Y-105114000I0J225000D01*
G01*
X125128000Y-104664000D01*
G75*
G02*
X125353000Y-104439000I225000J0D01*
G01*
X125853000Y-104439000D01*
G75*
G02*
X126078000Y-104664000I0J-225000D01*
G01*
X126078000Y-105114000D01*
G75*
G02*
X125853000Y-105339000I-225000J0D01*
G01*
G37*
G36*
G01*
X125853000Y-106889000D02*
X125353000Y-106889000D01*
G75*
G02*
X125128000Y-106664000I0J225000D01*
G01*
X125128000Y-106214000D01*
G75*
G02*
X125353000Y-105989000I225000J0D01*
G01*
X125853000Y-105989000D01*
G75*
G02*
X126078000Y-106214000I0J-225000D01*
G01*
X126078000Y-106664000D01*
G75*
G02*
X125853000Y-106889000I-225000J0D01*
G01*
G37*
G36*
G01*
X122043000Y-109784000D02*
X121543000Y-109784000D01*
G75*
G02*
X121318000Y-109559000I0J225000D01*
G01*
X121318000Y-109109000D01*
G75*
G02*
X121543000Y-108884000I225000J0D01*
G01*
X122043000Y-108884000D01*
G75*
G02*
X122268000Y-109109000I0J-225000D01*
G01*
X122268000Y-109559000D01*
G75*
G02*
X122043000Y-109784000I-225000J0D01*
G01*
G37*
G36*
G01*
X122043000Y-111334000D02*
X121543000Y-111334000D01*
G75*
G02*
X121318000Y-111109000I0J225000D01*
G01*
X121318000Y-110659000D01*
G75*
G02*
X121543000Y-110434000I225000J0D01*
G01*
X122043000Y-110434000D01*
G75*
G02*
X122268000Y-110659000I0J-225000D01*
G01*
X122268000Y-111109000D01*
G75*
G02*
X122043000Y-111334000I-225000J0D01*
G01*
G37*
G36*
G01*
X124583000Y-109784000D02*
X124083000Y-109784000D01*
G75*
G02*
X123858000Y-109559000I0J225000D01*
G01*
X123858000Y-109109000D01*
G75*
G02*
X124083000Y-108884000I225000J0D01*
G01*
X124583000Y-108884000D01*
G75*
G02*
X124808000Y-109109000I0J-225000D01*
G01*
X124808000Y-109559000D01*
G75*
G02*
X124583000Y-109784000I-225000J0D01*
G01*
G37*
G36*
G01*
X124583000Y-111334000D02*
X124083000Y-111334000D01*
G75*
G02*
X123858000Y-111109000I0J225000D01*
G01*
X123858000Y-110659000D01*
G75*
G02*
X124083000Y-110434000I225000J0D01*
G01*
X124583000Y-110434000D01*
G75*
G02*
X124808000Y-110659000I0J-225000D01*
G01*
X124808000Y-111109000D01*
G75*
G02*
X124583000Y-111334000I-225000J0D01*
G01*
G37*
G36*
G01*
X101723000Y-109784000D02*
X101223000Y-109784000D01*
G75*
G02*
X100998000Y-109559000I0J225000D01*
G01*
X100998000Y-109109000D01*
G75*
G02*
X101223000Y-108884000I225000J0D01*
G01*
X101723000Y-108884000D01*
G75*
G02*
X101948000Y-109109000I0J-225000D01*
G01*
X101948000Y-109559000D01*
G75*
G02*
X101723000Y-109784000I-225000J0D01*
G01*
G37*
G36*
G01*
X101723000Y-111334000D02*
X101223000Y-111334000D01*
G75*
G02*
X100998000Y-111109000I0J225000D01*
G01*
X100998000Y-110659000D01*
G75*
G02*
X101223000Y-110434000I225000J0D01*
G01*
X101723000Y-110434000D01*
G75*
G02*
X101948000Y-110659000I0J-225000D01*
G01*
X101948000Y-111109000D01*
G75*
G02*
X101723000Y-111334000I-225000J0D01*
G01*
G37*
G36*
G01*
X104263000Y-109784000D02*
X103763000Y-109784000D01*
G75*
G02*
X103538000Y-109559000I0J225000D01*
G01*
X103538000Y-109109000D01*
G75*
G02*
X103763000Y-108884000I225000J0D01*
G01*
X104263000Y-108884000D01*
G75*
G02*
X104488000Y-109109000I0J-225000D01*
G01*
X104488000Y-109559000D01*
G75*
G02*
X104263000Y-109784000I-225000J0D01*
G01*
G37*
G36*
G01*
X104263000Y-111334000D02*
X103763000Y-111334000D01*
G75*
G02*
X103538000Y-111109000I0J225000D01*
G01*
X103538000Y-110659000D01*
G75*
G02*
X103763000Y-110434000I225000J0D01*
G01*
X104263000Y-110434000D01*
G75*
G02*
X104488000Y-110659000I0J-225000D01*
G01*
X104488000Y-111109000D01*
G75*
G02*
X104263000Y-111334000I-225000J0D01*
G01*
G37*
G36*
G01*
X106803000Y-109784000D02*
X106303000Y-109784000D01*
G75*
G02*
X106078000Y-109559000I0J225000D01*
G01*
X106078000Y-109109000D01*
G75*
G02*
X106303000Y-108884000I225000J0D01*
G01*
X106803000Y-108884000D01*
G75*
G02*
X107028000Y-109109000I0J-225000D01*
G01*
X107028000Y-109559000D01*
G75*
G02*
X106803000Y-109784000I-225000J0D01*
G01*
G37*
G36*
G01*
X106803000Y-111334000D02*
X106303000Y-111334000D01*
G75*
G02*
X106078000Y-111109000I0J225000D01*
G01*
X106078000Y-110659000D01*
G75*
G02*
X106303000Y-110434000I225000J0D01*
G01*
X106803000Y-110434000D01*
G75*
G02*
X107028000Y-110659000I0J-225000D01*
G01*
X107028000Y-111109000D01*
G75*
G02*
X106803000Y-111334000I-225000J0D01*
G01*
G37*
G36*
G01*
X109343000Y-109784000D02*
X108843000Y-109784000D01*
G75*
G02*
X108618000Y-109559000I0J225000D01*
G01*
X108618000Y-109109000D01*
G75*
G02*
X108843000Y-108884000I225000J0D01*
G01*
X109343000Y-108884000D01*
G75*
G02*
X109568000Y-109109000I0J-225000D01*
G01*
X109568000Y-109559000D01*
G75*
G02*
X109343000Y-109784000I-225000J0D01*
G01*
G37*
G36*
G01*
X109343000Y-111334000D02*
X108843000Y-111334000D01*
G75*
G02*
X108618000Y-111109000I0J225000D01*
G01*
X108618000Y-110659000D01*
G75*
G02*
X108843000Y-110434000I225000J0D01*
G01*
X109343000Y-110434000D01*
G75*
G02*
X109568000Y-110659000I0J-225000D01*
G01*
X109568000Y-111109000D01*
G75*
G02*
X109343000Y-111334000I-225000J0D01*
G01*
G37*
G36*
G01*
X124710000Y-82606000D02*
X124210000Y-82606000D01*
G75*
G02*
X123985000Y-82381000I0J225000D01*
G01*
X123985000Y-81931000D01*
G75*
G02*
X124210000Y-81706000I225000J0D01*
G01*
X124710000Y-81706000D01*
G75*
G02*
X124935000Y-81931000I0J-225000D01*
G01*
X124935000Y-82381000D01*
G75*
G02*
X124710000Y-82606000I-225000J0D01*
G01*
G37*
G36*
G01*
X124710000Y-84156000D02*
X124210000Y-84156000D01*
G75*
G02*
X123985000Y-83931000I0J225000D01*
G01*
X123985000Y-83481000D01*
G75*
G02*
X124210000Y-83256000I225000J0D01*
G01*
X124710000Y-83256000D01*
G75*
G02*
X124935000Y-83481000I0J-225000D01*
G01*
X124935000Y-83931000D01*
G75*
G02*
X124710000Y-84156000I-225000J0D01*
G01*
G37*
G36*
G01*
X129155000Y-84130000D02*
X128655000Y-84130000D01*
G75*
G02*
X128430000Y-83905000I0J225000D01*
G01*
X128430000Y-83455000D01*
G75*
G02*
X128655000Y-83230000I225000J0D01*
G01*
X129155000Y-83230000D01*
G75*
G02*
X129380000Y-83455000I0J-225000D01*
G01*
X129380000Y-83905000D01*
G75*
G02*
X129155000Y-84130000I-225000J0D01*
G01*
G37*
G36*
G01*
X129155000Y-85680000D02*
X128655000Y-85680000D01*
G75*
G02*
X128430000Y-85455000I0J225000D01*
G01*
X128430000Y-85005000D01*
G75*
G02*
X128655000Y-84780000I225000J0D01*
G01*
X129155000Y-84780000D01*
G75*
G02*
X129380000Y-85005000I0J-225000D01*
G01*
X129380000Y-85455000D01*
G75*
G02*
X129155000Y-85680000I-225000J0D01*
G01*
G37*
G36*
G01*
X119503000Y-109784000D02*
X119003000Y-109784000D01*
G75*
G02*
X118778000Y-109559000I0J225000D01*
G01*
X118778000Y-109109000D01*
G75*
G02*
X119003000Y-108884000I225000J0D01*
G01*
X119503000Y-108884000D01*
G75*
G02*
X119728000Y-109109000I0J-225000D01*
G01*
X119728000Y-109559000D01*
G75*
G02*
X119503000Y-109784000I-225000J0D01*
G01*
G37*
G36*
G01*
X119503000Y-111334000D02*
X119003000Y-111334000D01*
G75*
G02*
X118778000Y-111109000I0J225000D01*
G01*
X118778000Y-110659000D01*
G75*
G02*
X119003000Y-110434000I225000J0D01*
G01*
X119503000Y-110434000D01*
G75*
G02*
X119728000Y-110659000I0J-225000D01*
G01*
X119728000Y-111109000D01*
G75*
G02*
X119503000Y-111334000I-225000J0D01*
G01*
G37*
G36*
G01*
X116963000Y-109784000D02*
X116463000Y-109784000D01*
G75*
G02*
X116238000Y-109559000I0J225000D01*
G01*
X116238000Y-109109000D01*
G75*
G02*
X116463000Y-108884000I225000J0D01*
G01*
X116963000Y-108884000D01*
G75*
G02*
X117188000Y-109109000I0J-225000D01*
G01*
X117188000Y-109559000D01*
G75*
G02*
X116963000Y-109784000I-225000J0D01*
G01*
G37*
G36*
G01*
X116963000Y-111334000D02*
X116463000Y-111334000D01*
G75*
G02*
X116238000Y-111109000I0J225000D01*
G01*
X116238000Y-110659000D01*
G75*
G02*
X116463000Y-110434000I225000J0D01*
G01*
X116963000Y-110434000D01*
G75*
G02*
X117188000Y-110659000I0J-225000D01*
G01*
X117188000Y-111109000D01*
G75*
G02*
X116963000Y-111334000I-225000J0D01*
G01*
G37*
G36*
G01*
X126234000Y-82606000D02*
X125734000Y-82606000D01*
G75*
G02*
X125509000Y-82381000I0J225000D01*
G01*
X125509000Y-81931000D01*
G75*
G02*
X125734000Y-81706000I225000J0D01*
G01*
X126234000Y-81706000D01*
G75*
G02*
X126459000Y-81931000I0J-225000D01*
G01*
X126459000Y-82381000D01*
G75*
G02*
X126234000Y-82606000I-225000J0D01*
G01*
G37*
G36*
G01*
X126234000Y-84156000D02*
X125734000Y-84156000D01*
G75*
G02*
X125509000Y-83931000I0J225000D01*
G01*
X125509000Y-83481000D01*
G75*
G02*
X125734000Y-83256000I225000J0D01*
G01*
X126234000Y-83256000D01*
G75*
G02*
X126459000Y-83481000I0J-225000D01*
G01*
X126459000Y-83931000D01*
G75*
G02*
X126234000Y-84156000I-225000J0D01*
G01*
G37*
G36*
G01*
X130806000Y-84130000D02*
X130306000Y-84130000D01*
G75*
G02*
X130081000Y-83905000I0J225000D01*
G01*
X130081000Y-83455000D01*
G75*
G02*
X130306000Y-83230000I225000J0D01*
G01*
X130806000Y-83230000D01*
G75*
G02*
X131031000Y-83455000I0J-225000D01*
G01*
X131031000Y-83905000D01*
G75*
G02*
X130806000Y-84130000I-225000J0D01*
G01*
G37*
G36*
G01*
X130806000Y-85680000D02*
X130306000Y-85680000D01*
G75*
G02*
X130081000Y-85455000I0J225000D01*
G01*
X130081000Y-85005000D01*
G75*
G02*
X130306000Y-84780000I225000J0D01*
G01*
X130806000Y-84780000D01*
G75*
G02*
X131031000Y-85005000I0J-225000D01*
G01*
X131031000Y-85455000D01*
G75*
G02*
X130806000Y-85680000I-225000J0D01*
G01*
G37*
G36*
G01*
X114423000Y-109784000D02*
X113923000Y-109784000D01*
G75*
G02*
X113698000Y-109559000I0J225000D01*
G01*
X113698000Y-109109000D01*
G75*
G02*
X113923000Y-108884000I225000J0D01*
G01*
X114423000Y-108884000D01*
G75*
G02*
X114648000Y-109109000I0J-225000D01*
G01*
X114648000Y-109559000D01*
G75*
G02*
X114423000Y-109784000I-225000J0D01*
G01*
G37*
G36*
G01*
X114423000Y-111334000D02*
X113923000Y-111334000D01*
G75*
G02*
X113698000Y-111109000I0J225000D01*
G01*
X113698000Y-110659000D01*
G75*
G02*
X113923000Y-110434000I225000J0D01*
G01*
X114423000Y-110434000D01*
G75*
G02*
X114648000Y-110659000I0J-225000D01*
G01*
X114648000Y-111109000D01*
G75*
G02*
X114423000Y-111334000I-225000J0D01*
G01*
G37*
G36*
G01*
X133167000Y-91563000D02*
X133167000Y-91063000D01*
G75*
G02*
X133392000Y-90838000I225000J0D01*
G01*
X133842000Y-90838000D01*
G75*
G02*
X134067000Y-91063000I0J-225000D01*
G01*
X134067000Y-91563000D01*
G75*
G02*
X133842000Y-91788000I-225000J0D01*
G01*
X133392000Y-91788000D01*
G75*
G02*
X133167000Y-91563000I0J225000D01*
G01*
G37*
G36*
G01*
X131617000Y-91563000D02*
X131617000Y-91063000D01*
G75*
G02*
X131842000Y-90838000I225000J0D01*
G01*
X132292000Y-90838000D01*
G75*
G02*
X132517000Y-91063000I0J-225000D01*
G01*
X132517000Y-91563000D01*
G75*
G02*
X132292000Y-91788000I-225000J0D01*
G01*
X131842000Y-91788000D01*
G75*
G02*
X131617000Y-91563000I0J225000D01*
G01*
G37*
G36*
G01*
X111883000Y-109784000D02*
X111383000Y-109784000D01*
G75*
G02*
X111158000Y-109559000I0J225000D01*
G01*
X111158000Y-109109000D01*
G75*
G02*
X111383000Y-108884000I225000J0D01*
G01*
X111883000Y-108884000D01*
G75*
G02*
X112108000Y-109109000I0J-225000D01*
G01*
X112108000Y-109559000D01*
G75*
G02*
X111883000Y-109784000I-225000J0D01*
G01*
G37*
G36*
G01*
X111883000Y-111334000D02*
X111383000Y-111334000D01*
G75*
G02*
X111158000Y-111109000I0J225000D01*
G01*
X111158000Y-110659000D01*
G75*
G02*
X111383000Y-110434000I225000J0D01*
G01*
X111883000Y-110434000D01*
G75*
G02*
X112108000Y-110659000I0J-225000D01*
G01*
X112108000Y-111109000D01*
G75*
G02*
X111883000Y-111334000I-225000J0D01*
G01*
G37*
G36*
G01*
X133167000Y-93341000D02*
X133167000Y-92841000D01*
G75*
G02*
X133392000Y-92616000I225000J0D01*
G01*
X133842000Y-92616000D01*
G75*
G02*
X134067000Y-92841000I0J-225000D01*
G01*
X134067000Y-93341000D01*
G75*
G02*
X133842000Y-93566000I-225000J0D01*
G01*
X133392000Y-93566000D01*
G75*
G02*
X133167000Y-93341000I0J225000D01*
G01*
G37*
G36*
G01*
X131617000Y-93341000D02*
X131617000Y-92841000D01*
G75*
G02*
X131842000Y-92616000I225000J0D01*
G01*
X132292000Y-92616000D01*
G75*
G02*
X132517000Y-92841000I0J-225000D01*
G01*
X132517000Y-93341000D01*
G75*
G02*
X132292000Y-93566000I-225000J0D01*
G01*
X131842000Y-93566000D01*
G75*
G02*
X131617000Y-93341000I0J225000D01*
G01*
G37*
G36*
G01*
X101948000Y-102420000D02*
X100998000Y-102420000D01*
G75*
G02*
X100748000Y-102170000I0J250000D01*
G01*
X100748000Y-101670000D01*
G75*
G02*
X100998000Y-101420000I250000J0D01*
G01*
X101948000Y-101420000D01*
G75*
G02*
X102198000Y-101670000I0J-250000D01*
G01*
X102198000Y-102170000D01*
G75*
G02*
X101948000Y-102420000I-250000J0D01*
G01*
G37*
G36*
G01*
X101948000Y-104320000D02*
X100998000Y-104320000D01*
G75*
G02*
X100748000Y-104070000I0J250000D01*
G01*
X100748000Y-103570000D01*
G75*
G02*
X100998000Y-103320000I250000J0D01*
G01*
X101948000Y-103320000D01*
G75*
G02*
X102198000Y-103570000I0J-250000D01*
G01*
X102198000Y-104070000D01*
G75*
G02*
X101948000Y-104320000I-250000J0D01*
G01*
G37*
G36*
G01*
X107028000Y-102420000D02*
X106078000Y-102420000D01*
G75*
G02*
X105828000Y-102170000I0J250000D01*
G01*
X105828000Y-101670000D01*
G75*
G02*
X106078000Y-101420000I250000J0D01*
G01*
X107028000Y-101420000D01*
G75*
G02*
X107278000Y-101670000I0J-250000D01*
G01*
X107278000Y-102170000D01*
G75*
G02*
X107028000Y-102420000I-250000J0D01*
G01*
G37*
G36*
G01*
X107028000Y-104320000D02*
X106078000Y-104320000D01*
G75*
G02*
X105828000Y-104070000I0J250000D01*
G01*
X105828000Y-103570000D01*
G75*
G02*
X106078000Y-103320000I250000J0D01*
G01*
X107028000Y-103320000D01*
G75*
G02*
X107278000Y-103570000I0J-250000D01*
G01*
X107278000Y-104070000D01*
G75*
G02*
X107028000Y-104320000I-250000J0D01*
G01*
G37*
G36*
G01*
X119728000Y-102420000D02*
X118778000Y-102420000D01*
G75*
G02*
X118528000Y-102170000I0J250000D01*
G01*
X118528000Y-101670000D01*
G75*
G02*
X118778000Y-101420000I250000J0D01*
G01*
X119728000Y-101420000D01*
G75*
G02*
X119978000Y-101670000I0J-250000D01*
G01*
X119978000Y-102170000D01*
G75*
G02*
X119728000Y-102420000I-250000J0D01*
G01*
G37*
G36*
G01*
X119728000Y-104320000D02*
X118778000Y-104320000D01*
G75*
G02*
X118528000Y-104070000I0J250000D01*
G01*
X118528000Y-103570000D01*
G75*
G02*
X118778000Y-103320000I250000J0D01*
G01*
X119728000Y-103320000D01*
G75*
G02*
X119978000Y-103570000I0J-250000D01*
G01*
X119978000Y-104070000D01*
G75*
G02*
X119728000Y-104320000I-250000J0D01*
G01*
G37*
G36*
G01*
X114648000Y-102420000D02*
X113698000Y-102420000D01*
G75*
G02*
X113448000Y-102170000I0J250000D01*
G01*
X113448000Y-101670000D01*
G75*
G02*
X113698000Y-101420000I250000J0D01*
G01*
X114648000Y-101420000D01*
G75*
G02*
X114898000Y-101670000I0J-250000D01*
G01*
X114898000Y-102170000D01*
G75*
G02*
X114648000Y-102420000I-250000J0D01*
G01*
G37*
G36*
G01*
X114648000Y-104320000D02*
X113698000Y-104320000D01*
G75*
G02*
X113448000Y-104070000I0J250000D01*
G01*
X113448000Y-103570000D01*
G75*
G02*
X113698000Y-103320000I250000J0D01*
G01*
X114648000Y-103320000D01*
G75*
G02*
X114898000Y-103570000I0J-250000D01*
G01*
X114898000Y-104070000D01*
G75*
G02*
X114648000Y-104320000I-250000J0D01*
G01*
G37*
G36*
G01*
X126944000Y-99056000D02*
X126944000Y-98556000D01*
G75*
G02*
X127169000Y-98331000I225000J0D01*
G01*
X127619000Y-98331000D01*
G75*
G02*
X127844000Y-98556000I0J-225000D01*
G01*
X127844000Y-99056000D01*
G75*
G02*
X127619000Y-99281000I-225000J0D01*
G01*
X127169000Y-99281000D01*
G75*
G02*
X126944000Y-99056000I0J225000D01*
G01*
G37*
G36*
G01*
X125394000Y-99056000D02*
X125394000Y-98556000D01*
G75*
G02*
X125619000Y-98331000I225000J0D01*
G01*
X126069000Y-98331000D01*
G75*
G02*
X126294000Y-98556000I0J-225000D01*
G01*
X126294000Y-99056000D01*
G75*
G02*
X126069000Y-99281000I-225000J0D01*
G01*
X125619000Y-99281000D01*
G75*
G02*
X125394000Y-99056000I0J225000D01*
G01*
G37*
G36*
G01*
X104488000Y-102420000D02*
X103538000Y-102420000D01*
G75*
G02*
X103288000Y-102170000I0J250000D01*
G01*
X103288000Y-101670000D01*
G75*
G02*
X103538000Y-101420000I250000J0D01*
G01*
X104488000Y-101420000D01*
G75*
G02*
X104738000Y-101670000I0J-250000D01*
G01*
X104738000Y-102170000D01*
G75*
G02*
X104488000Y-102420000I-250000J0D01*
G01*
G37*
G36*
G01*
X104488000Y-104320000D02*
X103538000Y-104320000D01*
G75*
G02*
X103288000Y-104070000I0J250000D01*
G01*
X103288000Y-103570000D01*
G75*
G02*
X103538000Y-103320000I250000J0D01*
G01*
X104488000Y-103320000D01*
G75*
G02*
X104738000Y-103570000I0J-250000D01*
G01*
X104738000Y-104070000D01*
G75*
G02*
X104488000Y-104320000I-250000J0D01*
G01*
G37*
G36*
G01*
X109568000Y-102420000D02*
X108618000Y-102420000D01*
G75*
G02*
X108368000Y-102170000I0J250000D01*
G01*
X108368000Y-101670000D01*
G75*
G02*
X108618000Y-101420000I250000J0D01*
G01*
X109568000Y-101420000D01*
G75*
G02*
X109818000Y-101670000I0J-250000D01*
G01*
X109818000Y-102170000D01*
G75*
G02*
X109568000Y-102420000I-250000J0D01*
G01*
G37*
G36*
G01*
X109568000Y-104320000D02*
X108618000Y-104320000D01*
G75*
G02*
X108368000Y-104070000I0J250000D01*
G01*
X108368000Y-103570000D01*
G75*
G02*
X108618000Y-103320000I250000J0D01*
G01*
X109568000Y-103320000D01*
G75*
G02*
X109818000Y-103570000I0J-250000D01*
G01*
X109818000Y-104070000D01*
G75*
G02*
X109568000Y-104320000I-250000J0D01*
G01*
G37*
G36*
G01*
X117188000Y-102420000D02*
X116238000Y-102420000D01*
G75*
G02*
X115988000Y-102170000I0J250000D01*
G01*
X115988000Y-101670000D01*
G75*
G02*
X116238000Y-101420000I250000J0D01*
G01*
X117188000Y-101420000D01*
G75*
G02*
X117438000Y-101670000I0J-250000D01*
G01*
X117438000Y-102170000D01*
G75*
G02*
X117188000Y-102420000I-250000J0D01*
G01*
G37*
G36*
G01*
X117188000Y-104320000D02*
X116238000Y-104320000D01*
G75*
G02*
X115988000Y-104070000I0J250000D01*
G01*
X115988000Y-103570000D01*
G75*
G02*
X116238000Y-103320000I250000J0D01*
G01*
X117188000Y-103320000D01*
G75*
G02*
X117438000Y-103570000I0J-250000D01*
G01*
X117438000Y-104070000D01*
G75*
G02*
X117188000Y-104320000I-250000J0D01*
G01*
G37*
G36*
G01*
X112108000Y-102420000D02*
X111158000Y-102420000D01*
G75*
G02*
X110908000Y-102170000I0J250000D01*
G01*
X110908000Y-101670000D01*
G75*
G02*
X111158000Y-101420000I250000J0D01*
G01*
X112108000Y-101420000D01*
G75*
G02*
X112358000Y-101670000I0J-250000D01*
G01*
X112358000Y-102170000D01*
G75*
G02*
X112108000Y-102420000I-250000J0D01*
G01*
G37*
G36*
G01*
X112108000Y-104320000D02*
X111158000Y-104320000D01*
G75*
G02*
X110908000Y-104070000I0J250000D01*
G01*
X110908000Y-103570000D01*
G75*
G02*
X111158000Y-103320000I250000J0D01*
G01*
X112108000Y-103320000D01*
G75*
G02*
X112358000Y-103570000I0J-250000D01*
G01*
X112358000Y-104070000D01*
G75*
G02*
X112108000Y-104320000I-250000J0D01*
G01*
G37*
G36*
G01*
X126944000Y-97532000D02*
X126944000Y-97032000D01*
G75*
G02*
X127169000Y-96807000I225000J0D01*
G01*
X127619000Y-96807000D01*
G75*
G02*
X127844000Y-97032000I0J-225000D01*
G01*
X127844000Y-97532000D01*
G75*
G02*
X127619000Y-97757000I-225000J0D01*
G01*
X127169000Y-97757000D01*
G75*
G02*
X126944000Y-97532000I0J225000D01*
G01*
G37*
G36*
G01*
X125394000Y-97532000D02*
X125394000Y-97032000D01*
G75*
G02*
X125619000Y-96807000I225000J0D01*
G01*
X126069000Y-96807000D01*
G75*
G02*
X126294000Y-97032000I0J-225000D01*
G01*
X126294000Y-97532000D01*
G75*
G02*
X126069000Y-97757000I-225000J0D01*
G01*
X125619000Y-97757000D01*
G75*
G02*
X125394000Y-97532000I0J225000D01*
G01*
G37*
G36*
G01*
X132278000Y-87245000D02*
X132278000Y-86745000D01*
G75*
G02*
X132503000Y-86520000I225000J0D01*
G01*
X132953000Y-86520000D01*
G75*
G02*
X133178000Y-86745000I0J-225000D01*
G01*
X133178000Y-87245000D01*
G75*
G02*
X132953000Y-87470000I-225000J0D01*
G01*
X132503000Y-87470000D01*
G75*
G02*
X132278000Y-87245000I0J225000D01*
G01*
G37*
G36*
G01*
X130728000Y-87245000D02*
X130728000Y-86745000D01*
G75*
G02*
X130953000Y-86520000I225000J0D01*
G01*
X131403000Y-86520000D01*
G75*
G02*
X131628000Y-86745000I0J-225000D01*
G01*
X131628000Y-87245000D01*
G75*
G02*
X131403000Y-87470000I-225000J0D01*
G01*
X130953000Y-87470000D01*
G75*
G02*
X130728000Y-87245000I0J225000D01*
G01*
G37*
G36*
G01*
X132405000Y-95373000D02*
X132405000Y-94873000D01*
G75*
G02*
X132630000Y-94648000I225000J0D01*
G01*
X133080000Y-94648000D01*
G75*
G02*
X133305000Y-94873000I0J-225000D01*
G01*
X133305000Y-95373000D01*
G75*
G02*
X133080000Y-95598000I-225000J0D01*
G01*
X132630000Y-95598000D01*
G75*
G02*
X132405000Y-95373000I0J225000D01*
G01*
G37*
G36*
G01*
X130855000Y-95373000D02*
X130855000Y-94873000D01*
G75*
G02*
X131080000Y-94648000I225000J0D01*
G01*
X131530000Y-94648000D01*
G75*
G02*
X131755000Y-94873000I0J-225000D01*
G01*
X131755000Y-95373000D01*
G75*
G02*
X131530000Y-95598000I-225000J0D01*
G01*
X131080000Y-95598000D01*
G75*
G02*
X130855000Y-95373000I0J225000D01*
G01*
G37*
G36*
G01*
X132278000Y-88896000D02*
X132278000Y-88396000D01*
G75*
G02*
X132503000Y-88171000I225000J0D01*
G01*
X132953000Y-88171000D01*
G75*
G02*
X133178000Y-88396000I0J-225000D01*
G01*
X133178000Y-88896000D01*
G75*
G02*
X132953000Y-89121000I-225000J0D01*
G01*
X132503000Y-89121000D01*
G75*
G02*
X132278000Y-88896000I0J225000D01*
G01*
G37*
G36*
G01*
X130728000Y-88896000D02*
X130728000Y-88396000D01*
G75*
G02*
X130953000Y-88171000I225000J0D01*
G01*
X131403000Y-88171000D01*
G75*
G02*
X131628000Y-88396000I0J-225000D01*
G01*
X131628000Y-88896000D01*
G75*
G02*
X131403000Y-89121000I-225000J0D01*
G01*
X130953000Y-89121000D01*
G75*
G02*
X130728000Y-88896000I0J225000D01*
G01*
G37*
G36*
G01*
X131742000Y-96524000D02*
X131742000Y-97024000D01*
G75*
G02*
X131517000Y-97249000I-225000J0D01*
G01*
X131067000Y-97249000D01*
G75*
G02*
X130842000Y-97024000I0J225000D01*
G01*
X130842000Y-96524000D01*
G75*
G02*
X131067000Y-96299000I225000J0D01*
G01*
X131517000Y-96299000D01*
G75*
G02*
X131742000Y-96524000I0J-225000D01*
G01*
G37*
G36*
G01*
X133292000Y-96524000D02*
X133292000Y-97024000D01*
G75*
G02*
X133067000Y-97249000I-225000J0D01*
G01*
X132617000Y-97249000D01*
G75*
G02*
X132392000Y-97024000I0J225000D01*
G01*
X132392000Y-96524000D01*
G75*
G02*
X132617000Y-96299000I225000J0D01*
G01*
X133067000Y-96299000D01*
G75*
G02*
X133292000Y-96524000I0J-225000D01*
G01*
G37*
G36*
G01*
X117852000Y-83495000D02*
X117352000Y-83495000D01*
G75*
G02*
X117127000Y-83270000I0J225000D01*
G01*
X117127000Y-82820000D01*
G75*
G02*
X117352000Y-82595000I225000J0D01*
G01*
X117852000Y-82595000D01*
G75*
G02*
X118077000Y-82820000I0J-225000D01*
G01*
X118077000Y-83270000D01*
G75*
G02*
X117852000Y-83495000I-225000J0D01*
G01*
G37*
G36*
G01*
X117852000Y-85045000D02*
X117352000Y-85045000D01*
G75*
G02*
X117127000Y-84820000I0J225000D01*
G01*
X117127000Y-84370000D01*
G75*
G02*
X117352000Y-84145000I225000J0D01*
G01*
X117852000Y-84145000D01*
G75*
G02*
X118077000Y-84370000I0J-225000D01*
G01*
X118077000Y-84820000D01*
G75*
G02*
X117852000Y-85045000I-225000J0D01*
G01*
G37*
G36*
G01*
X119503000Y-83495000D02*
X119003000Y-83495000D01*
G75*
G02*
X118778000Y-83270000I0J225000D01*
G01*
X118778000Y-82820000D01*
G75*
G02*
X119003000Y-82595000I225000J0D01*
G01*
X119503000Y-82595000D01*
G75*
G02*
X119728000Y-82820000I0J-225000D01*
G01*
X119728000Y-83270000D01*
G75*
G02*
X119503000Y-83495000I-225000J0D01*
G01*
G37*
G36*
G01*
X119503000Y-85045000D02*
X119003000Y-85045000D01*
G75*
G02*
X118778000Y-84820000I0J225000D01*
G01*
X118778000Y-84370000D01*
G75*
G02*
X119003000Y-84145000I225000J0D01*
G01*
X119503000Y-84145000D01*
G75*
G02*
X119728000Y-84370000I0J-225000D01*
G01*
X119728000Y-84820000D01*
G75*
G02*
X119503000Y-85045000I-225000J0D01*
G01*
G37*
G36*
G01*
X93401000Y-92714000D02*
X93401000Y-93214000D01*
G75*
G02*
X93176000Y-93439000I-225000J0D01*
G01*
X92726000Y-93439000D01*
G75*
G02*
X92501000Y-93214000I0J225000D01*
G01*
X92501000Y-92714000D01*
G75*
G02*
X92726000Y-92489000I225000J0D01*
G01*
X93176000Y-92489000D01*
G75*
G02*
X93401000Y-92714000I0J-225000D01*
G01*
G37*
G36*
G01*
X94951000Y-92714000D02*
X94951000Y-93214000D01*
G75*
G02*
X94726000Y-93439000I-225000J0D01*
G01*
X94276000Y-93439000D01*
G75*
G02*
X94051000Y-93214000I0J225000D01*
G01*
X94051000Y-92714000D01*
G75*
G02*
X94276000Y-92489000I225000J0D01*
G01*
X94726000Y-92489000D01*
G75*
G02*
X94951000Y-92714000I0J-225000D01*
G01*
G37*
G36*
G01*
X105354000Y-79117000D02*
X105354000Y-78617000D01*
G75*
G02*
X105579000Y-78392000I225000J0D01*
G01*
X106029000Y-78392000D01*
G75*
G02*
X106254000Y-78617000I0J-225000D01*
G01*
X106254000Y-79117000D01*
G75*
G02*
X106029000Y-79342000I-225000J0D01*
G01*
X105579000Y-79342000D01*
G75*
G02*
X105354000Y-79117000I0J225000D01*
G01*
G37*
G36*
G01*
X103804000Y-79117000D02*
X103804000Y-78617000D01*
G75*
G02*
X104029000Y-78392000I225000J0D01*
G01*
X104479000Y-78392000D01*
G75*
G02*
X104704000Y-78617000I0J-225000D01*
G01*
X104704000Y-79117000D01*
G75*
G02*
X104479000Y-79342000I-225000J0D01*
G01*
X104029000Y-79342000D01*
G75*
G02*
X103804000Y-79117000I0J225000D01*
G01*
G37*
G36*
G01*
X105354000Y-80768000D02*
X105354000Y-80268000D01*
G75*
G02*
X105579000Y-80043000I225000J0D01*
G01*
X106029000Y-80043000D01*
G75*
G02*
X106254000Y-80268000I0J-225000D01*
G01*
X106254000Y-80768000D01*
G75*
G02*
X106029000Y-80993000I-225000J0D01*
G01*
X105579000Y-80993000D01*
G75*
G02*
X105354000Y-80768000I0J225000D01*
G01*
G37*
G36*
G01*
X103804000Y-80768000D02*
X103804000Y-80268000D01*
G75*
G02*
X104029000Y-80043000I225000J0D01*
G01*
X104479000Y-80043000D01*
G75*
G02*
X104704000Y-80268000I0J-225000D01*
G01*
X104704000Y-80768000D01*
G75*
G02*
X104479000Y-80993000I-225000J0D01*
G01*
X104029000Y-80993000D01*
G75*
G02*
X103804000Y-80768000I0J225000D01*
G01*
G37*
G36*
G01*
X82467000Y-81174000D02*
X82467000Y-80624000D01*
G75*
G02*
X82667000Y-80424000I200000J0D01*
G01*
X83067000Y-80424000D01*
G75*
G02*
X83267000Y-80624000I0J-200000D01*
G01*
X83267000Y-81174000D01*
G75*
G02*
X83067000Y-81374000I-200000J0D01*
G01*
X82667000Y-81374000D01*
G75*
G02*
X82467000Y-81174000I0J200000D01*
G01*
G37*
G36*
G01*
X80817000Y-81174000D02*
X80817000Y-80624000D01*
G75*
G02*
X81017000Y-80424000I200000J0D01*
G01*
X81417000Y-80424000D01*
G75*
G02*
X81617000Y-80624000I0J-200000D01*
G01*
X81617000Y-81174000D01*
G75*
G02*
X81417000Y-81374000I-200000J0D01*
G01*
X81017000Y-81374000D01*
G75*
G02*
X80817000Y-81174000I0J200000D01*
G01*
G37*
G36*
G01*
X82467000Y-79523000D02*
X82467000Y-78973000D01*
G75*
G02*
X82667000Y-78773000I200000J0D01*
G01*
X83067000Y-78773000D01*
G75*
G02*
X83267000Y-78973000I0J-200000D01*
G01*
X83267000Y-79523000D01*
G75*
G02*
X83067000Y-79723000I-200000J0D01*
G01*
X82667000Y-79723000D01*
G75*
G02*
X82467000Y-79523000I0J200000D01*
G01*
G37*
G36*
G01*
X80817000Y-79523000D02*
X80817000Y-78973000D01*
G75*
G02*
X81017000Y-78773000I200000J0D01*
G01*
X81417000Y-78773000D01*
G75*
G02*
X81617000Y-78973000I0J-200000D01*
G01*
X81617000Y-79523000D01*
G75*
G02*
X81417000Y-79723000I-200000J0D01*
G01*
X81017000Y-79723000D01*
G75*
G02*
X80817000Y-79523000I0J200000D01*
G01*
G37*
G36*
G01*
X82467000Y-77872000D02*
X82467000Y-77322000D01*
G75*
G02*
X82667000Y-77122000I200000J0D01*
G01*
X83067000Y-77122000D01*
G75*
G02*
X83267000Y-77322000I0J-200000D01*
G01*
X83267000Y-77872000D01*
G75*
G02*
X83067000Y-78072000I-200000J0D01*
G01*
X82667000Y-78072000D01*
G75*
G02*
X82467000Y-77872000I0J200000D01*
G01*
G37*
G36*
G01*
X80817000Y-77872000D02*
X80817000Y-77322000D01*
G75*
G02*
X81017000Y-77122000I200000J0D01*
G01*
X81417000Y-77122000D01*
G75*
G02*
X81617000Y-77322000I0J-200000D01*
G01*
X81617000Y-77872000D01*
G75*
G02*
X81417000Y-78072000I-200000J0D01*
G01*
X81017000Y-78072000D01*
G75*
G02*
X80817000Y-77872000I0J200000D01*
G01*
G37*
G36*
G01*
X83610000Y-90445000D02*
X83610000Y-89895000D01*
G75*
G02*
X83810000Y-89695000I200000J0D01*
G01*
X84210000Y-89695000D01*
G75*
G02*
X84410000Y-89895000I0J-200000D01*
G01*
X84410000Y-90445000D01*
G75*
G02*
X84210000Y-90645000I-200000J0D01*
G01*
X83810000Y-90645000D01*
G75*
G02*
X83610000Y-90445000I0J200000D01*
G01*
G37*
G36*
G01*
X81960000Y-90445000D02*
X81960000Y-89895000D01*
G75*
G02*
X82160000Y-89695000I200000J0D01*
G01*
X82560000Y-89695000D01*
G75*
G02*
X82760000Y-89895000I0J-200000D01*
G01*
X82760000Y-90445000D01*
G75*
G02*
X82560000Y-90645000I-200000J0D01*
G01*
X82160000Y-90645000D01*
G75*
G02*
X81960000Y-90445000I0J200000D01*
G01*
G37*
G36*
G01*
X83610000Y-85873000D02*
X83610000Y-85323000D01*
G75*
G02*
X83810000Y-85123000I200000J0D01*
G01*
X84210000Y-85123000D01*
G75*
G02*
X84410000Y-85323000I0J-200000D01*
G01*
X84410000Y-85873000D01*
G75*
G02*
X84210000Y-86073000I-200000J0D01*
G01*
X83810000Y-86073000D01*
G75*
G02*
X83610000Y-85873000I0J200000D01*
G01*
G37*
G36*
G01*
X81960000Y-85873000D02*
X81960000Y-85323000D01*
G75*
G02*
X82160000Y-85123000I200000J0D01*
G01*
X82560000Y-85123000D01*
G75*
G02*
X82760000Y-85323000I0J-200000D01*
G01*
X82760000Y-85873000D01*
G75*
G02*
X82560000Y-86073000I-200000J0D01*
G01*
X82160000Y-86073000D01*
G75*
G02*
X81960000Y-85873000I0J200000D01*
G01*
G37*
D16*
X77597000Y-80137000D03*
X76327000Y-80137000D03*
X77597000Y-78867000D03*
X76327000Y-78867000D03*
X77597000Y-77597000D03*
X76327000Y-77597000D03*
X77597000Y-76327000D03*
X76327000Y-76327000D03*
X77597000Y-75057000D03*
X76327000Y-75057000D03*
G36*
G01*
X105404500Y-83314250D02*
X105404500Y-82801750D01*
G75*
G02*
X105623250Y-82583000I218750J0D01*
G01*
X106060750Y-82583000D01*
G75*
G02*
X106279500Y-82801750I0J-218750D01*
G01*
X106279500Y-83314250D01*
G75*
G02*
X106060750Y-83533000I-218750J0D01*
G01*
X105623250Y-83533000D01*
G75*
G02*
X105404500Y-83314250I0J218750D01*
G01*
G37*
G36*
G01*
X103829500Y-83314250D02*
X103829500Y-82801750D01*
G75*
G02*
X104048250Y-82583000I218750J0D01*
G01*
X104485750Y-82583000D01*
G75*
G02*
X104704500Y-82801750I0J-218750D01*
G01*
X104704500Y-83314250D01*
G75*
G02*
X104485750Y-83533000I-218750J0D01*
G01*
X104048250Y-83533000D01*
G75*
G02*
X103829500Y-83314250I0J218750D01*
G01*
G37*
G36*
G01*
X82835000Y-91564750D02*
X82835000Y-92077250D01*
G75*
G02*
X82616250Y-92296000I-218750J0D01*
G01*
X82178750Y-92296000D01*
G75*
G02*
X81960000Y-92077250I0J218750D01*
G01*
X81960000Y-91564750D01*
G75*
G02*
X82178750Y-91346000I218750J0D01*
G01*
X82616250Y-91346000D01*
G75*
G02*
X82835000Y-91564750I0J-218750D01*
G01*
G37*
G36*
G01*
X84410000Y-91564750D02*
X84410000Y-92077250D01*
G75*
G02*
X84191250Y-92296000I-218750J0D01*
G01*
X83753750Y-92296000D01*
G75*
G02*
X83535000Y-92077250I0J218750D01*
G01*
X83535000Y-91564750D01*
G75*
G02*
X83753750Y-91346000I218750J0D01*
G01*
X84191250Y-91346000D01*
G75*
G02*
X84410000Y-91564750I0J-218750D01*
G01*
G37*
G36*
G01*
X83510000Y-87499000D02*
X83510000Y-86999000D01*
G75*
G02*
X83735000Y-86774000I225000J0D01*
G01*
X84185000Y-86774000D01*
G75*
G02*
X84410000Y-86999000I0J-225000D01*
G01*
X84410000Y-87499000D01*
G75*
G02*
X84185000Y-87724000I-225000J0D01*
G01*
X83735000Y-87724000D01*
G75*
G02*
X83510000Y-87499000I0J225000D01*
G01*
G37*
G36*
G01*
X81960000Y-87499000D02*
X81960000Y-86999000D01*
G75*
G02*
X82185000Y-86774000I225000J0D01*
G01*
X82635000Y-86774000D01*
G75*
G02*
X82860000Y-86999000I0J-225000D01*
G01*
X82860000Y-87499000D01*
G75*
G02*
X82635000Y-87724000I-225000J0D01*
G01*
X82185000Y-87724000D01*
G75*
G02*
X81960000Y-87499000I0J225000D01*
G01*
G37*
G36*
G01*
X104136000Y-85273000D02*
X103636000Y-85273000D01*
G75*
G02*
X103411000Y-85048000I0J225000D01*
G01*
X103411000Y-84598000D01*
G75*
G02*
X103636000Y-84373000I225000J0D01*
G01*
X104136000Y-84373000D01*
G75*
G02*
X104361000Y-84598000I0J-225000D01*
G01*
X104361000Y-85048000D01*
G75*
G02*
X104136000Y-85273000I-225000J0D01*
G01*
G37*
G36*
G01*
X104136000Y-86823000D02*
X103636000Y-86823000D01*
G75*
G02*
X103411000Y-86598000I0J225000D01*
G01*
X103411000Y-86148000D01*
G75*
G02*
X103636000Y-85923000I225000J0D01*
G01*
X104136000Y-85923000D01*
G75*
G02*
X104361000Y-86148000I0J-225000D01*
G01*
X104361000Y-86598000D01*
G75*
G02*
X104136000Y-86823000I-225000J0D01*
G01*
G37*
G36*
G01*
X106266000Y-85275000D02*
X105316000Y-85275000D01*
G75*
G02*
X105066000Y-85025000I0J250000D01*
G01*
X105066000Y-84525000D01*
G75*
G02*
X105316000Y-84275000I250000J0D01*
G01*
X106266000Y-84275000D01*
G75*
G02*
X106516000Y-84525000I0J-250000D01*
G01*
X106516000Y-85025000D01*
G75*
G02*
X106266000Y-85275000I-250000J0D01*
G01*
G37*
G36*
G01*
X106266000Y-87175000D02*
X105316000Y-87175000D01*
G75*
G02*
X105066000Y-86925000I0J250000D01*
G01*
X105066000Y-86425000D01*
G75*
G02*
X105316000Y-86175000I250000J0D01*
G01*
X106266000Y-86175000D01*
G75*
G02*
X106516000Y-86425000I0J-250000D01*
G01*
X106516000Y-86925000D01*
G75*
G02*
X106266000Y-87175000I-250000J0D01*
G01*
G37*
G36*
G01*
X102993000Y-89083000D02*
X102493000Y-89083000D01*
G75*
G02*
X102268000Y-88858000I0J225000D01*
G01*
X102268000Y-88408000D01*
G75*
G02*
X102493000Y-88183000I225000J0D01*
G01*
X102993000Y-88183000D01*
G75*
G02*
X103218000Y-88408000I0J-225000D01*
G01*
X103218000Y-88858000D01*
G75*
G02*
X102993000Y-89083000I-225000J0D01*
G01*
G37*
G36*
G01*
X102993000Y-90633000D02*
X102493000Y-90633000D01*
G75*
G02*
X102268000Y-90408000I0J225000D01*
G01*
X102268000Y-89958000D01*
G75*
G02*
X102493000Y-89733000I225000J0D01*
G01*
X102993000Y-89733000D01*
G75*
G02*
X103218000Y-89958000I0J-225000D01*
G01*
X103218000Y-90408000D01*
G75*
G02*
X102993000Y-90633000I-225000J0D01*
G01*
G37*
G36*
G01*
X104644000Y-89083000D02*
X104144000Y-89083000D01*
G75*
G02*
X103919000Y-88858000I0J225000D01*
G01*
X103919000Y-88408000D01*
G75*
G02*
X104144000Y-88183000I225000J0D01*
G01*
X104644000Y-88183000D01*
G75*
G02*
X104869000Y-88408000I0J-225000D01*
G01*
X104869000Y-88858000D01*
G75*
G02*
X104644000Y-89083000I-225000J0D01*
G01*
G37*
G36*
G01*
X104644000Y-90633000D02*
X104144000Y-90633000D01*
G75*
G02*
X103919000Y-90408000I0J225000D01*
G01*
X103919000Y-89958000D01*
G75*
G02*
X104144000Y-89733000I225000J0D01*
G01*
X104644000Y-89733000D01*
G75*
G02*
X104869000Y-89958000I0J-225000D01*
G01*
X104869000Y-90408000D01*
G75*
G02*
X104644000Y-90633000I-225000J0D01*
G01*
G37*
D17*
X125882000Y-74281000D03*
X125882000Y-78881000D03*
X125882000Y-76581000D03*
D18*
X132182000Y-76581000D03*
G36*
G01*
X134853000Y-74720000D02*
X135403000Y-74720000D01*
G75*
G02*
X135603000Y-74920000I0J-200000D01*
G01*
X135603000Y-75320000D01*
G75*
G02*
X135403000Y-75520000I-200000J0D01*
G01*
X134853000Y-75520000D01*
G75*
G02*
X134653000Y-75320000I0J200000D01*
G01*
X134653000Y-74920000D01*
G75*
G02*
X134853000Y-74720000I200000J0D01*
G01*
G37*
G36*
G01*
X134853000Y-73070000D02*
X135403000Y-73070000D01*
G75*
G02*
X135603000Y-73270000I0J-200000D01*
G01*
X135603000Y-73670000D01*
G75*
G02*
X135403000Y-73870000I-200000J0D01*
G01*
X134853000Y-73870000D01*
G75*
G02*
X134653000Y-73670000I0J200000D01*
G01*
X134653000Y-73270000D01*
G75*
G02*
X134853000Y-73070000I200000J0D01*
G01*
G37*
G36*
G01*
X136631000Y-74720000D02*
X137181000Y-74720000D01*
G75*
G02*
X137381000Y-74920000I0J-200000D01*
G01*
X137381000Y-75320000D01*
G75*
G02*
X137181000Y-75520000I-200000J0D01*
G01*
X136631000Y-75520000D01*
G75*
G02*
X136431000Y-75320000I0J200000D01*
G01*
X136431000Y-74920000D01*
G75*
G02*
X136631000Y-74720000I200000J0D01*
G01*
G37*
G36*
G01*
X136631000Y-73070000D02*
X137181000Y-73070000D01*
G75*
G02*
X137381000Y-73270000I0J-200000D01*
G01*
X137381000Y-73670000D01*
G75*
G02*
X137181000Y-73870000I-200000J0D01*
G01*
X136631000Y-73870000D01*
G75*
G02*
X136431000Y-73670000I0J200000D01*
G01*
X136431000Y-73270000D01*
G75*
G02*
X136631000Y-73070000I200000J0D01*
G01*
G37*
G36*
G01*
X101325000Y-93262000D02*
X101875000Y-93262000D01*
G75*
G02*
X102075000Y-93462000I0J-200000D01*
G01*
X102075000Y-93862000D01*
G75*
G02*
X101875000Y-94062000I-200000J0D01*
G01*
X101325000Y-94062000D01*
G75*
G02*
X101125000Y-93862000I0J200000D01*
G01*
X101125000Y-93462000D01*
G75*
G02*
X101325000Y-93262000I200000J0D01*
G01*
G37*
G36*
G01*
X101325000Y-91612000D02*
X101875000Y-91612000D01*
G75*
G02*
X102075000Y-91812000I0J-200000D01*
G01*
X102075000Y-92212000D01*
G75*
G02*
X101875000Y-92412000I-200000J0D01*
G01*
X101325000Y-92412000D01*
G75*
G02*
X101125000Y-92212000I0J200000D01*
G01*
X101125000Y-91812000D01*
G75*
G02*
X101325000Y-91612000I200000J0D01*
G01*
G37*
G36*
G01*
X99410000Y-93982250D02*
X99410000Y-93469750D01*
G75*
G02*
X99628750Y-93251000I218750J0D01*
G01*
X100066250Y-93251000D01*
G75*
G02*
X100285000Y-93469750I0J-218750D01*
G01*
X100285000Y-93982250D01*
G75*
G02*
X100066250Y-94201000I-218750J0D01*
G01*
X99628750Y-94201000D01*
G75*
G02*
X99410000Y-93982250I0J218750D01*
G01*
G37*
G36*
G01*
X97835000Y-93982250D02*
X97835000Y-93469750D01*
G75*
G02*
X98053750Y-93251000I218750J0D01*
G01*
X98491250Y-93251000D01*
G75*
G02*
X98710000Y-93469750I0J-218750D01*
G01*
X98710000Y-93982250D01*
G75*
G02*
X98491250Y-94201000I-218750J0D01*
G01*
X98053750Y-94201000D01*
G75*
G02*
X97835000Y-93982250I0J218750D01*
G01*
G37*
G36*
G01*
X118014000Y-73530750D02*
X118014000Y-74043250D01*
G75*
G02*
X117795250Y-74262000I-218750J0D01*
G01*
X117357750Y-74262000D01*
G75*
G02*
X117139000Y-74043250I0J218750D01*
G01*
X117139000Y-73530750D01*
G75*
G02*
X117357750Y-73312000I218750J0D01*
G01*
X117795250Y-73312000D01*
G75*
G02*
X118014000Y-73530750I0J-218750D01*
G01*
G37*
G36*
G01*
X119589000Y-73530750D02*
X119589000Y-74043250D01*
G75*
G02*
X119370250Y-74262000I-218750J0D01*
G01*
X118932750Y-74262000D01*
G75*
G02*
X118714000Y-74043250I0J218750D01*
G01*
X118714000Y-73530750D01*
G75*
G02*
X118932750Y-73312000I218750J0D01*
G01*
X119370250Y-73312000D01*
G75*
G02*
X119589000Y-73530750I0J-218750D01*
G01*
G37*
G36*
G01*
X136213000Y-80358000D02*
X136213000Y-79408000D01*
G75*
G02*
X136463000Y-79158000I250000J0D01*
G01*
X136963000Y-79158000D01*
G75*
G02*
X137213000Y-79408000I0J-250000D01*
G01*
X137213000Y-80358000D01*
G75*
G02*
X136963000Y-80608000I-250000J0D01*
G01*
X136463000Y-80608000D01*
G75*
G02*
X136213000Y-80358000I0J250000D01*
G01*
G37*
G36*
G01*
X134313000Y-80358000D02*
X134313000Y-79408000D01*
G75*
G02*
X134563000Y-79158000I250000J0D01*
G01*
X135063000Y-79158000D01*
G75*
G02*
X135313000Y-79408000I0J-250000D01*
G01*
X135313000Y-80358000D01*
G75*
G02*
X135063000Y-80608000I-250000J0D01*
G01*
X134563000Y-80608000D01*
G75*
G02*
X134313000Y-80358000I0J250000D01*
G01*
G37*
G36*
G01*
X121162000Y-74874000D02*
X121662000Y-74874000D01*
G75*
G02*
X121887000Y-75099000I0J-225000D01*
G01*
X121887000Y-75549000D01*
G75*
G02*
X121662000Y-75774000I-225000J0D01*
G01*
X121162000Y-75774000D01*
G75*
G02*
X120937000Y-75549000I0J225000D01*
G01*
X120937000Y-75099000D01*
G75*
G02*
X121162000Y-74874000I225000J0D01*
G01*
G37*
G36*
G01*
X121162000Y-73324000D02*
X121662000Y-73324000D01*
G75*
G02*
X121887000Y-73549000I0J-225000D01*
G01*
X121887000Y-73999000D01*
G75*
G02*
X121662000Y-74224000I-225000J0D01*
G01*
X121162000Y-74224000D01*
G75*
G02*
X120937000Y-73999000I0J225000D01*
G01*
X120937000Y-73549000D01*
G75*
G02*
X121162000Y-73324000I225000J0D01*
G01*
G37*
G36*
G01*
X99385000Y-92198000D02*
X99385000Y-91698000D01*
G75*
G02*
X99610000Y-91473000I225000J0D01*
G01*
X100060000Y-91473000D01*
G75*
G02*
X100285000Y-91698000I0J-225000D01*
G01*
X100285000Y-92198000D01*
G75*
G02*
X100060000Y-92423000I-225000J0D01*
G01*
X99610000Y-92423000D01*
G75*
G02*
X99385000Y-92198000I0J225000D01*
G01*
G37*
G36*
G01*
X97835000Y-92198000D02*
X97835000Y-91698000D01*
G75*
G02*
X98060000Y-91473000I225000J0D01*
G01*
X98510000Y-91473000D01*
G75*
G02*
X98735000Y-91698000I0J-225000D01*
G01*
X98735000Y-92198000D01*
G75*
G02*
X98510000Y-92423000I-225000J0D01*
G01*
X98060000Y-92423000D01*
G75*
G02*
X97835000Y-92198000I0J225000D01*
G01*
G37*
G36*
G01*
X87193000Y-102104000D02*
X87193000Y-101604000D01*
G75*
G02*
X87418000Y-101379000I225000J0D01*
G01*
X87868000Y-101379000D01*
G75*
G02*
X88093000Y-101604000I0J-225000D01*
G01*
X88093000Y-102104000D01*
G75*
G02*
X87868000Y-102329000I-225000J0D01*
G01*
X87418000Y-102329000D01*
G75*
G02*
X87193000Y-102104000I0J225000D01*
G01*
G37*
G36*
G01*
X85643000Y-102104000D02*
X85643000Y-101604000D01*
G75*
G02*
X85868000Y-101379000I225000J0D01*
G01*
X86318000Y-101379000D01*
G75*
G02*
X86543000Y-101604000I0J-225000D01*
G01*
X86543000Y-102104000D01*
G75*
G02*
X86318000Y-102329000I-225000J0D01*
G01*
X85868000Y-102329000D01*
G75*
G02*
X85643000Y-102104000I0J225000D01*
G01*
G37*
G36*
G01*
X95194000Y-102104000D02*
X95194000Y-101604000D01*
G75*
G02*
X95419000Y-101379000I225000J0D01*
G01*
X95869000Y-101379000D01*
G75*
G02*
X96094000Y-101604000I0J-225000D01*
G01*
X96094000Y-102104000D01*
G75*
G02*
X95869000Y-102329000I-225000J0D01*
G01*
X95419000Y-102329000D01*
G75*
G02*
X95194000Y-102104000I0J225000D01*
G01*
G37*
G36*
G01*
X93644000Y-102104000D02*
X93644000Y-101604000D01*
G75*
G02*
X93869000Y-101379000I225000J0D01*
G01*
X94319000Y-101379000D01*
G75*
G02*
X94544000Y-101604000I0J-225000D01*
G01*
X94544000Y-102104000D01*
G75*
G02*
X94319000Y-102329000I-225000J0D01*
G01*
X93869000Y-102329000D01*
G75*
G02*
X93644000Y-102104000I0J225000D01*
G01*
G37*
G36*
G01*
X94103000Y-73462000D02*
X93603000Y-73462000D01*
G75*
G02*
X93378000Y-73237000I0J225000D01*
G01*
X93378000Y-72787000D01*
G75*
G02*
X93603000Y-72562000I225000J0D01*
G01*
X94103000Y-72562000D01*
G75*
G02*
X94328000Y-72787000I0J-225000D01*
G01*
X94328000Y-73237000D01*
G75*
G02*
X94103000Y-73462000I-225000J0D01*
G01*
G37*
G36*
G01*
X94103000Y-75012000D02*
X93603000Y-75012000D01*
G75*
G02*
X93378000Y-74787000I0J225000D01*
G01*
X93378000Y-74337000D01*
G75*
G02*
X93603000Y-74112000I225000J0D01*
G01*
X94103000Y-74112000D01*
G75*
G02*
X94328000Y-74337000I0J-225000D01*
G01*
X94328000Y-74787000D01*
G75*
G02*
X94103000Y-75012000I-225000J0D01*
G01*
G37*
G36*
G01*
X93401000Y-91063000D02*
X93401000Y-91563000D01*
G75*
G02*
X93176000Y-91788000I-225000J0D01*
G01*
X92726000Y-91788000D01*
G75*
G02*
X92501000Y-91563000I0J225000D01*
G01*
X92501000Y-91063000D01*
G75*
G02*
X92726000Y-90838000I225000J0D01*
G01*
X93176000Y-90838000D01*
G75*
G02*
X93401000Y-91063000I0J-225000D01*
G01*
G37*
G36*
G01*
X94951000Y-91063000D02*
X94951000Y-91563000D01*
G75*
G02*
X94726000Y-91788000I-225000J0D01*
G01*
X94276000Y-91788000D01*
G75*
G02*
X94051000Y-91563000I0J225000D01*
G01*
X94051000Y-91063000D01*
G75*
G02*
X94276000Y-90838000I225000J0D01*
G01*
X94726000Y-90838000D01*
G75*
G02*
X94951000Y-91063000I0J-225000D01*
G01*
G37*
G36*
G01*
X82860000Y-83697000D02*
X82860000Y-84197000D01*
G75*
G02*
X82635000Y-84422000I-225000J0D01*
G01*
X82185000Y-84422000D01*
G75*
G02*
X81960000Y-84197000I0J225000D01*
G01*
X81960000Y-83697000D01*
G75*
G02*
X82185000Y-83472000I225000J0D01*
G01*
X82635000Y-83472000D01*
G75*
G02*
X82860000Y-83697000I0J-225000D01*
G01*
G37*
G36*
G01*
X84410000Y-83697000D02*
X84410000Y-84197000D01*
G75*
G02*
X84185000Y-84422000I-225000J0D01*
G01*
X83735000Y-84422000D01*
G75*
G02*
X83510000Y-84197000I0J225000D01*
G01*
X83510000Y-83697000D01*
G75*
G02*
X83735000Y-83472000I225000J0D01*
G01*
X84185000Y-83472000D01*
G75*
G02*
X84410000Y-83697000I0J-225000D01*
G01*
G37*
D19*
X128558000Y-87547000D03*
X128558000Y-88046999D03*
X128558000Y-88547001D03*
X128558000Y-89047000D03*
X128558000Y-89546999D03*
X128558000Y-90047000D03*
X128558000Y-90547000D03*
X128558000Y-91047001D03*
X128558000Y-91547000D03*
X128558000Y-92046999D03*
X128558000Y-92547001D03*
X128558000Y-93047000D03*
D20*
X127083000Y-94522000D03*
X126583001Y-94522000D03*
X126082999Y-94522000D03*
X125583000Y-94522000D03*
X125083001Y-94522000D03*
X124583000Y-94522000D03*
X124083000Y-94522000D03*
X123582999Y-94522000D03*
X123083000Y-94522000D03*
X122583001Y-94522000D03*
X122082999Y-94522000D03*
X121583000Y-94522000D03*
D19*
X120108000Y-93047000D03*
X120108000Y-92547001D03*
X120108000Y-92046999D03*
X120108000Y-91547000D03*
X120108000Y-91047001D03*
X120108000Y-90547000D03*
X120108000Y-90047000D03*
X120108000Y-89546999D03*
X120108000Y-89047000D03*
X120108000Y-88547001D03*
X120108000Y-88046999D03*
X120108000Y-87547000D03*
D20*
X121583000Y-86072000D03*
X122082999Y-86072000D03*
X122583001Y-86072000D03*
X123083000Y-86072000D03*
X123582999Y-86072000D03*
X124083000Y-86072000D03*
X124583000Y-86072000D03*
X125083001Y-86072000D03*
X125583000Y-86072000D03*
X126082999Y-86072000D03*
X126583001Y-86072000D03*
X127083000Y-86072000D03*
D21*
X98171000Y-88303100D03*
X97663000Y-88303100D03*
X97155000Y-88303100D03*
X96647000Y-88303100D03*
X96139000Y-88303100D03*
X95631000Y-88303100D03*
X95123000Y-88303100D03*
X94615000Y-88303100D03*
X94107000Y-88303100D03*
X93599000Y-88303100D03*
X93091000Y-88303100D03*
X92583000Y-88303100D03*
X92075000Y-88303100D03*
X91567000Y-88303100D03*
X91059000Y-88303100D03*
X90551000Y-88303100D03*
D22*
X88861900Y-86614000D03*
X88861900Y-86106000D03*
X88861900Y-85598000D03*
X88861900Y-85090000D03*
X88861900Y-84582000D03*
X88861900Y-84074000D03*
X88861900Y-83566000D03*
X88861900Y-83058000D03*
X88861900Y-82550000D03*
X88861900Y-82042000D03*
X88861900Y-81534000D03*
X88861900Y-81026000D03*
X88861900Y-80518000D03*
X88861900Y-80010000D03*
X88861900Y-79502000D03*
X88861900Y-78994000D03*
D21*
X90551000Y-77304900D03*
X91059000Y-77304900D03*
X91567000Y-77304900D03*
X92075000Y-77304900D03*
X92583000Y-77304900D03*
X93091000Y-77304900D03*
X93599000Y-77304900D03*
X94107000Y-77304900D03*
X94615000Y-77304900D03*
X95123000Y-77304900D03*
X95631000Y-77304900D03*
X96139000Y-77304900D03*
X96647000Y-77304900D03*
X97155000Y-77304900D03*
X97663000Y-77304900D03*
X98171000Y-77304900D03*
D22*
X99860100Y-78994000D03*
X99860100Y-79502000D03*
X99860100Y-80010000D03*
X99860100Y-80518000D03*
X99860100Y-81026000D03*
X99860100Y-81534000D03*
X99860100Y-82042000D03*
X99860100Y-82550000D03*
X99860100Y-83058000D03*
X99860100Y-83566000D03*
X99860100Y-84074000D03*
X99860100Y-84582000D03*
X99860100Y-85090000D03*
X99860100Y-85598000D03*
X99860100Y-86106000D03*
X99860100Y-86614000D03*
D23*
X135033000Y-66484000D03*
X135033000Y-115484000D03*
X77033000Y-115484000D03*
X77033000Y-66484000D03*
M02*
