M48
; DRILL file {KiCad (5.1.10)-1} date 12/12/21 11:33:17
; FORMAT={-:-/ absolute / inch / decimal}
; #@! TF.CreationDate,2021-12-12T11:33:17-08:00
; #@! TF.GenerationSoftware,Kicad,Pcbnew,(5.1.10)-1
; #@! TF.FileFunction,Plated,1,2,PTH
FMAT,2
INCH
T1C0.0157
T2C0.0260
T3C0.0394
T4C0.0400
%
G90
G05
T1
X3.26Y-2.82
X3.305Y-3.24
X3.32Y-3.055
X3.345Y-3.105
X3.395Y-3.005
X3.42Y-2.955
X3.43Y-2.885
X3.46Y-3.06
X3.575Y-3.17
X3.575Y-3.24
X3.59Y-3.625
X3.595Y-2.855
X3.605Y-3.37
X3.625Y-3.125
X3.665Y-3.22
X3.765Y-2.885
X3.775Y-2.735
X3.785Y-3.105
X3.81Y-2.96
X3.815Y-3.14
X3.83Y-2.925
X3.85Y-3.22
X3.87Y-3.27
X3.995Y-3.29
X4.025Y-2.82
X4.04Y-3.165
X4.045Y-3.245
X4.075Y-3.835
X4.095Y-3.905
X4.17Y-2.82
X4.185Y-3.515
X4.185Y-3.74
X4.195Y-3.91
X4.215Y-2.885
X4.28Y-2.96
X4.295Y-3.91
X4.315Y-2.925
X4.385Y-2.855
X4.435Y-3.065
X4.445Y-3.54
X4.465Y-3.095
X4.515Y-2.9
X4.52Y-3.615
X4.54Y-3.5452
X4.56Y-2.805
X4.565Y-3.335
X4.61Y-3.615
X4.63Y-3.425
X4.645Y-3.67
X4.795Y-4.25
X4.8Y-3.215
X4.8Y-3.455
X4.83Y-3.265
X4.88Y-3.57
X4.895Y-4.25
X4.905Y-3.54
X4.93Y-3.51
X4.94Y-2.765
X4.955Y-3.485
X4.98Y-3.625
X4.99Y-3.585
X4.995Y-3.54
X5.05Y-2.765
X5.065Y-4.13
X5.08Y-3.015
X5.095Y-3.945
X5.12Y-3.605
X5.12Y-3.75
X5.14Y-3.635
X5.14Y-3.69
T2
X3.005Y-2.955
X3.005Y-3.005
X3.005Y-3.055
X3.005Y-3.105
X3.005Y-3.155
X3.055Y-2.955
X3.055Y-3.005
X3.055Y-3.055
X3.055Y-3.105
X3.055Y-3.155
T3
X3.995Y-4.49
X3.995Y-4.59
X4.095Y-4.49
X4.095Y-4.59
X4.195Y-4.49
X4.195Y-4.59
X4.295Y-4.49
X4.295Y-4.59
X4.395Y-4.49
X4.395Y-4.59
X4.435Y-3.19
X4.435Y-3.29
X4.435Y-3.39
X4.495Y-4.49
X4.495Y-4.59
X4.595Y-4.49
X4.595Y-4.59
X4.695Y-4.49
X4.695Y-4.59
X4.795Y-4.49
X4.795Y-4.59
X4.895Y-4.49
X4.895Y-4.59
X4.995Y-4.49
X4.995Y-4.59
X5.095Y-4.49
X5.095Y-4.59
T4
X3.2245Y-2.5675
X3.2245Y-2.6675
X3.3245Y-2.5675
X3.3245Y-2.6675
X3.4245Y-2.5675
X3.4245Y-2.6675
X3.5245Y-2.5675
X3.5245Y-2.6675
X3.6245Y-2.5675
X3.6245Y-2.6675
X3.7245Y-2.5675
X3.7245Y-2.6675
X3.8245Y-2.5675
X3.8245Y-2.6675
X3.9245Y-2.5675
X3.9245Y-2.6675
X4.0245Y-2.5675
X4.0245Y-2.6675
X4.1245Y-2.5675
X4.1245Y-2.6675
X4.2245Y-2.5675
X4.2245Y-2.6675
X4.3245Y-2.5675
X4.3245Y-2.6675
X4.4245Y-2.5675
X4.4245Y-2.6675
X4.5245Y-2.5675
X4.5245Y-2.6675
X4.6245Y-2.5675
X4.6245Y-2.6675
X4.7245Y-2.5675
X4.7245Y-2.6675
X4.8245Y-2.5675
X4.8245Y-2.6675
X4.9245Y-2.5675
X4.9245Y-2.6675
X5.0245Y-2.5675
X5.0245Y-2.6675
X5.1245Y-2.5675
X5.1245Y-2.6675
T0
M30
