G04 #@! TF.GenerationSoftware,KiCad,Pcbnew,(5.1.10)-1*
G04 #@! TF.CreationDate,2021-12-12T11:33:08-08:00*
G04 #@! TF.ProjectId,TsunamiHat,5473756e-616d-4694-9861-742e6b696361,rev?*
G04 #@! TF.SameCoordinates,Original*
G04 #@! TF.FileFunction,Soldermask,Bot*
G04 #@! TF.FilePolarity,Negative*
%FSLAX46Y46*%
G04 Gerber Fmt 4.6, Leading zero omitted, Abs format (unit mm)*
G04 Created by KiCad (PCBNEW (5.1.10)-1) date 2021-12-12 11:33:08*
%MOMM*%
%LPD*%
G01*
G04 APERTURE LIST*
%ADD10R,1.727200X1.727200*%
%ADD11O,1.727200X1.727200*%
%ADD12O,1.700000X1.700000*%
%ADD13R,1.700000X1.700000*%
%ADD14C,1.168400*%
%ADD15C,6.200000*%
G04 APERTURE END LIST*
D10*
X81903000Y-67754000D03*
D11*
X81903000Y-65214000D03*
X84443000Y-67754000D03*
X84443000Y-65214000D03*
X86983000Y-67754000D03*
X86983000Y-65214000D03*
X89523000Y-67754000D03*
X89523000Y-65214000D03*
X92063000Y-67754000D03*
X92063000Y-65214000D03*
X94603000Y-67754000D03*
X94603000Y-65214000D03*
X97143000Y-67754000D03*
X97143000Y-65214000D03*
X99683000Y-67754000D03*
X99683000Y-65214000D03*
X102223000Y-67754000D03*
X102223000Y-65214000D03*
X104763000Y-67754000D03*
X104763000Y-65214000D03*
X107303000Y-67754000D03*
X107303000Y-65214000D03*
X109843000Y-67754000D03*
X109843000Y-65214000D03*
X112383000Y-67754000D03*
X112383000Y-65214000D03*
X114923000Y-67754000D03*
X114923000Y-65214000D03*
X117463000Y-67754000D03*
X117463000Y-65214000D03*
X120003000Y-67754000D03*
X120003000Y-65214000D03*
X122543000Y-67754000D03*
X122543000Y-65214000D03*
X125083000Y-67754000D03*
X125083000Y-65214000D03*
X127623000Y-67754000D03*
X127623000Y-65214000D03*
X130163000Y-67754000D03*
X130163000Y-65214000D03*
D12*
X112649000Y-86106000D03*
X112649000Y-83566000D03*
D13*
X112649000Y-81026000D03*
D12*
X101473000Y-116586000D03*
X101473000Y-114046000D03*
X104013000Y-116586000D03*
X104013000Y-114046000D03*
X106553000Y-116586000D03*
X106553000Y-114046000D03*
X109093000Y-116586000D03*
X109093000Y-114046000D03*
X111633000Y-116586000D03*
X111633000Y-114046000D03*
X114173000Y-116586000D03*
X114173000Y-114046000D03*
X116713000Y-116586000D03*
X116713000Y-114046000D03*
X119253000Y-116586000D03*
X119253000Y-114046000D03*
X121793000Y-116586000D03*
X121793000Y-114046000D03*
X124333000Y-116586000D03*
X124333000Y-114046000D03*
X126873000Y-116586000D03*
X126873000Y-114046000D03*
X129413000Y-116586000D03*
D13*
X129413000Y-114046000D03*
D14*
X77597000Y-80137000D03*
X76327000Y-80137000D03*
X77597000Y-78867000D03*
X76327000Y-78867000D03*
X77597000Y-77597000D03*
X76327000Y-77597000D03*
X77597000Y-76327000D03*
X76327000Y-76327000D03*
X77597000Y-75057000D03*
X76327000Y-75057000D03*
D15*
X135033000Y-66484000D03*
X135033000Y-115484000D03*
X77033000Y-115484000D03*
X77033000Y-66484000D03*
M02*
